<?xml version="1.0" encoding="UTF-8" standalone="no"?>
<svg
   xmlns:dc="http://purl.org/dc/elements/1.1/"
   xmlns:cc="http://creativecommons.org/ns#"
   xmlns:rdf="http://www.w3.org/1999/02/22-rdf-syntax-ns#"
   xmlns:svg="http://www.w3.org/2000/svg"
   xmlns="http://www.w3.org/2000/svg"
   viewBox="0 0 1352.3199 573.57465"
   height="573.57465"
   width="1352.3199"
   xml:space="preserve"
   id="svg2"
   version="1.1"><metadata
     id="metadata8"><rdf:RDF><cc:Work
         rdf:about=""><dc:format>image/svg+xml</dc:format><dc:type
           rdf:resource="http://purl.org/dc/dcmitype/StillImage" /></cc:Work></rdf:RDF></metadata><defs
     id="defs6"><clipPath
       id="clipPath22"
       clipPathUnits="userSpaceOnUse"><path
         id="path20"
         d="M 0,430.181 H 1014.241 V 0 H 0 Z" /></clipPath></defs><g
     transform="matrix(1.3333333,0,0,-1.3333333,0,573.57467)"
     id="g10"><g
       transform="translate(270.1919,115.2595)"
       id="g12"><path
         id="path14"
         style="fill:#1d1d1b;fill-opacity:1;fill-rule:nonzero;stroke:none"
         d="M 0,0 4.992,-26.584 19.348,0 h 1.857 L 4.083,-31.673 -1.837,0 Z" /></g><g
       id="g16"><g
         clip-path="url(#clipPath22)"
         id="g18"><g
           transform="translate(293.7676,100.5935)"
           id="g24"><path
             id="path26"
             style="fill:#1d1d1b;fill-opacity:1;fill-rule:nonzero;stroke:none"
             d="m 0,0 c -2.019,-1.716 -3.241,-3.786 -3.667,-6.21 -0.425,-2.426 0.068,-4.493 1.481,-6.202 1.412,-1.709 3.331,-2.564 5.756,-2.564 2.424,0 4.646,0.855 6.665,2.564 2.018,1.709 3.241,3.776 3.666,6.202 C 14.327,-3.786 13.833,-1.716 12.42,0 11.009,1.715 9.09,2.573 6.665,2.573 4.24,2.573 2.019,1.715 0,0 m 6.994,4.431 c 2.941,0 5.262,-1.038 6.965,-3.116 1.703,-2.076 2.296,-4.585 1.78,-7.525 -0.516,-2.929 -1.992,-5.431 -4.43,-7.508 -2.438,-2.077 -5.128,-3.114 -8.068,-3.114 -2.929,0 -5.247,1.037 -6.956,3.114 -1.709,2.077 -2.306,4.579 -1.789,7.508 0.515,2.94 1.996,5.449 4.44,7.525 2.444,2.078 5.13,3.116 8.058,3.116" /></g><g
           transform="translate(318.4258,103.3015)"
           id="g28"><path
             id="path30"
             style="fill:#1d1d1b;fill-opacity:1;fill-rule:nonzero;stroke:none"
             d="M 0,0 1.431,8.088 H 3.173 L 1.741,0 h 3.87 L 5.301,-1.741 H 1.431 L -1.606,-18.999 H -3.347 L -0.31,-1.741 H -4.179 L -3.87,0 Z" /></g><g
           transform="translate(328.6797,103.3015)"
           id="g32"><path
             id="path34"
             style="fill:#1d1d1b;fill-opacity:1;fill-rule:nonzero;stroke:none"
             d="M 0,0 H 1.741 L 1.142,-3.463 c 0.451,0.516 0.954,1.013 1.509,1.49 1.806,1.536 3.521,2.341 5.146,2.418 L 7.468,-1.45 C 6.359,-1.502 5.114,-2.115 3.734,-3.289 1.8,-4.927 0.594,-6.894 0.117,-9.189 l -1.723,-9.81 h -1.741 z" /></g><g
           transform="translate(354.5859,101.4255)"
           id="g36"><path
             id="path38"
             style="fill:#1d1d1b;fill-opacity:1;fill-rule:nonzero;stroke:none"
             d="m 0,0 c -1.303,1.161 -2.953,1.741 -4.953,1.741 -2.412,0 -4.627,-0.854 -6.646,-2.563 -2.019,-1.709 -3.24,-3.777 -3.666,-6.2 -0.348,-2 -0.077,-3.755 0.812,-5.263 z m -13.485,-13.563 c 1.367,-1.497 3.18,-2.245 5.437,-2.245 2.424,0 4.65,0.859 6.674,2.574 0.258,0.219 0.503,0.446 0.736,0.677 l 1.721,-0.657 c -0.425,-0.465 -0.883,-0.91 -1.373,-1.336 -2.451,-2.077 -5.147,-3.114 -8.087,-3.114 -2.928,0 -5.247,1.037 -6.956,3.114 -1.709,2.077 -2.305,4.585 -1.789,7.528 0.516,2.926 1.996,5.429 4.439,7.505 2.445,2.078 5.131,3.116 8.059,3.116 2.515,0 4.579,-0.754 6.191,-2.264 C 1.838,1.077 2.103,0.793 2.36,0.483 2.45,0.368 2.535,0.251 2.612,0.135 L 1.064,-1.181 Z" /></g><g
           transform="translate(377.145,96.2019)"
           id="g40"><path
             id="path42"
             style="fill:#1d1d1b;fill-opacity:1;fill-rule:nonzero;stroke:none"
             d="m 0,0 -0.638,-3.638 c 0.051,-1.651 0.593,-3.108 1.625,-4.373 1.419,-1.715 3.341,-2.573 5.766,-2.573 2.424,0 4.646,0.855 6.664,2.563 2.02,1.709 3.242,3.777 3.667,6.203 0.426,2.423 -0.067,4.494 -1.48,6.21 C 14.192,6.106 12.273,6.965 9.848,6.965 7.423,6.965 5.198,6.106 3.173,4.392 1.69,3.128 0.632,1.663 0,0 M 1.625,19.058 H 3.367 L 0.793,4.431 c 0.4,0.437 0.839,0.863 1.317,1.276 2.45,2.077 5.139,3.115 8.067,3.115 2.941,0 5.262,-1.038 6.965,-3.115 1.702,-2.076 2.296,-4.585 1.781,-7.525 -0.517,-2.929 -1.993,-5.431 -4.431,-7.508 -2.438,-2.077 -5.128,-3.114 -8.068,-3.114 -2.928,0 -5.251,1.037 -6.966,3.114 -0.335,0.413 -0.625,0.839 -0.87,1.277 l -0.677,-3.85 h -1.742 z" /></g><g
           transform="translate(406.5439,109.532)"
           id="g44"><path
             id="path46"
             style="fill:#1d1d1b;fill-opacity:1;fill-rule:nonzero;stroke:none"
             d="m 0,0 c 0.277,-0.335 0.377,-0.741 0.3,-1.219 -0.091,-0.49 -0.336,-0.903 -0.736,-1.238 -0.399,-0.336 -0.838,-0.503 -1.315,-0.503 -0.478,0 -0.858,0.167 -1.142,0.503 -0.283,0.335 -0.38,0.748 -0.29,1.238 0.077,0.478 0.319,0.884 0.725,1.219 0.407,0.335 0.849,0.503 1.326,0.503 C -0.654,0.503 -0.278,0.335 0,0 m -1.461,-6.23 -3.347,-18.999 h -1.741 l 3.347,18.999 z" /></g><g
           transform="translate(425.668,101.4255)"
           id="g48"><path
             id="path50"
             style="fill:#1d1d1b;fill-opacity:1;fill-rule:nonzero;stroke:none"
             d="m 0,0 c -1.303,1.161 -2.953,1.741 -4.953,1.741 -2.412,0 -4.627,-0.854 -6.646,-2.563 -2.018,-1.709 -3.24,-3.777 -3.666,-6.2 -0.348,-2 -0.077,-3.755 0.813,-5.263 z m -13.485,-13.563 c 1.367,-1.497 3.18,-2.245 5.437,-2.245 2.424,0 4.65,0.859 6.675,2.574 0.258,0.219 0.503,0.446 0.735,0.677 l 1.722,-0.657 c -0.426,-0.465 -0.884,-0.91 -1.373,-1.336 -2.452,-2.077 -5.147,-3.114 -8.088,-3.114 -2.928,0 -5.246,1.037 -6.956,3.114 -1.709,2.077 -2.305,4.585 -1.789,7.528 0.516,2.926 1.996,5.429 4.44,7.505 2.444,2.078 5.13,3.116 8.058,3.116 2.516,0 4.579,-0.754 6.191,-2.264 C 1.839,1.077 2.104,0.793 2.36,0.483 2.45,0.368 2.535,0.251 2.612,0.135 L 1.064,-1.181 Z" /></g><g
           transform="translate(435.0527,99.0652)"
           id="g52"><path
             id="path54"
             style="fill:#1d1d1b;fill-opacity:1;fill-rule:nonzero;stroke:none"
             d="M 0,0 -2.612,-14.763 H -4.354 L -1.007,4.236 H 0.734 L 0.522,3.018 c 1.871,1.574 3.857,2.36 5.959,2.36 2.245,0 3.944,-0.702 5.098,-2.108 1.154,-1.407 1.564,-3.18 1.229,-5.321 L 10.563,-14.763 H 8.822 l 2.206,12.558 c 0.283,1.611 -0.055,2.988 -1.016,4.13 C 9.051,3.067 7.771,3.638 6.172,3.638 4.571,3.638 3.088,3.076 1.722,1.954 0.986,1.322 0.412,0.671 0,0" /></g><g
           transform="translate(453.1035,96.6277)"
           id="g56"><path
             id="path58"
             style="fill:#1d1d1b;fill-opacity:1;fill-rule:nonzero;stroke:none"
             d="m 0,0 h 11.415 l -0.31,-1.741 H -0.31 Z" /></g><g
           transform="translate(482.4932,109.9197)"
           id="g60"><path
             id="path62"
             style="fill:#1d1d1b;fill-opacity:1;fill-rule:nonzero;stroke:none"
             d="M 0,0 3.792,-4.528 H 1.78 l -3.095,2.766 -3.91,-2.766 h -2.03 L -2.013,0 Z m 2.921,-8.494 c -1.303,1.161 -2.953,1.741 -4.952,1.741 -2.412,0 -4.627,-0.854 -6.647,-2.563 -2.018,-1.709 -3.24,-3.777 -3.666,-6.201 -0.348,-2 -0.077,-3.754 0.813,-5.262 z m -13.485,-13.563 c 1.368,-1.497 3.18,-2.245 5.437,-2.245 2.425,0 4.65,0.859 6.675,2.573 0.258,0.22 0.503,0.447 0.735,0.678 l 1.722,-0.657 c -0.426,-0.465 -0.884,-0.91 -1.373,-1.336 -2.451,-2.077 -5.148,-3.114 -8.088,-3.114 -2.928,0 -5.246,1.037 -6.955,3.114 -1.709,2.077 -2.306,4.585 -1.789,7.527 0.514,2.927 1.995,5.43 4.439,7.506 2.445,2.077 5.13,3.115 8.059,3.115 2.514,0 4.578,-0.753 6.19,-2.263 0.272,-0.258 0.536,-0.542 0.794,-0.852 0.089,-0.115 0.174,-0.232 0.251,-0.348 L 3.985,-9.675 Z" /></g><g
           transform="translate(498.2227,103.3015)"
           id="g64"><path
             id="path66"
             style="fill:#1d1d1b;fill-opacity:1;fill-rule:nonzero;stroke:none"
             d="M 0,0 1.432,8.088 H 3.174 L 1.741,0 h 3.87 L 5.302,-1.741 H 1.432 L -1.605,-18.999 H -3.347 L -0.31,-1.741 H -4.179 L -3.869,0 Z" /></g><g
           transform="translate(508.4775,103.3015)"
           id="g68"><path
             id="path70"
             style="fill:#1d1d1b;fill-opacity:1;fill-rule:nonzero;stroke:none"
             d="M 0,0 H 1.74 L 1.142,-3.463 c 0.45,0.516 0.954,1.013 1.507,1.49 1.807,1.536 3.522,2.341 5.147,2.418 L 7.468,-1.45 C 6.357,-1.502 5.112,-2.115 3.732,-3.289 1.799,-4.927 0.593,-6.894 0.116,-9.189 l -1.722,-9.81 h -1.742 z" /></g><g
           transform="translate(534.3828,101.4255)"
           id="g72"><path
             id="path74"
             style="fill:#1d1d1b;fill-opacity:1;fill-rule:nonzero;stroke:none"
             d="m 0,0 c -1.304,1.161 -2.954,1.741 -4.953,1.741 -2.413,0 -4.627,-0.854 -6.646,-2.563 -2.019,-1.709 -3.241,-3.777 -3.668,-6.2 -0.347,-2 -0.077,-3.755 0.813,-5.263 z m -13.486,-13.563 c 1.368,-1.497 3.18,-2.245 5.436,-2.245 2.425,0 4.651,0.859 6.675,2.574 0.259,0.219 0.504,0.446 0.735,0.677 l 1.722,-0.657 c -0.424,-0.465 -0.884,-0.91 -1.372,-1.336 -2.451,-2.077 -5.147,-3.114 -8.088,-3.114 -2.928,0 -5.246,1.037 -6.956,3.114 -1.708,2.077 -2.305,4.585 -1.789,7.528 0.516,2.926 1.996,5.429 4.439,7.505 2.446,2.078 5.13,3.116 8.059,3.116 2.515,0 4.578,-0.754 6.191,-2.264 C 1.837,1.077 2.102,0.793 2.36,0.483 2.449,0.368 2.534,0.251 2.611,0.135 L 1.063,-1.181 Z" /></g><g
           transform="translate(556.96,96.2019)"
           id="g76"><path
             id="path78"
             style="fill:#1d1d1b;fill-opacity:1;fill-rule:nonzero;stroke:none"
             d="m 0,0 -0.656,-3.638 c 0.05,-1.664 0.593,-3.128 1.625,-4.392 1.419,-1.715 3.339,-2.573 5.765,-2.573 2.424,0 4.646,0.858 6.665,2.573 2.019,1.716 3.241,3.786 3.665,6.212 0.427,2.423 -0.067,4.494 -1.478,6.21 C 14.173,6.106 12.255,6.965 9.828,6.965 7.404,6.965 5.187,6.106 3.173,4.392 1.677,3.128 0.619,1.663 0,0 M -0.502,7.1 H 1.239 L 0.773,4.431 c 0.401,0.437 0.846,0.863 1.336,1.276 2.439,2.064 5.121,3.097 8.049,3.097 2.94,0 5.262,-1.036 6.965,-3.107 1.702,-2.069 2.297,-4.575 1.781,-7.515 -0.517,-2.929 -1.994,-5.431 -4.431,-7.508 -2.439,-2.077 -5.127,-3.114 -8.069,-3.114 -2.927,0 -5.242,1.037 -6.945,3.114 -0.349,0.413 -0.645,0.839 -0.89,1.277 l -1.955,-11.105 h -1.741 z" /></g><g
           transform="translate(599.1572,92.6609)"
           id="g80"><path
             id="path82"
             style="fill:#1d1d1b;fill-opacity:1;fill-rule:nonzero;stroke:none"
             d="m 0,0 0.62,3.444 c -0.027,1.702 -0.567,3.199 -1.625,4.489 -1.419,1.714 -3.342,2.573 -5.766,2.573 -2.426,0 -4.648,-0.859 -6.665,-2.573 -2.019,-1.716 -3.241,-3.787 -3.667,-6.21 -0.424,-2.426 0.068,-4.494 1.481,-6.202 1.412,-1.709 3.331,-2.564 5.756,-2.564 2.424,0 4.649,0.858 6.674,2.573 C -1.683,-3.18 -0.619,-1.69 0,0 m 0.271,-8.358 h -1.742 l 0.678,3.869 c -0.413,-0.451 -0.852,-0.883 -1.316,-1.296 -2.45,-2.077 -5.146,-3.114 -8.086,-3.114 -2.928,0 -5.248,1.037 -6.956,3.114 -1.708,2.077 -2.305,4.579 -1.789,7.508 0.515,2.94 1.996,5.449 4.439,7.525 2.445,2.077 5.13,3.115 8.059,3.115 2.941,0 5.269,-1.038 6.985,-3.115 0.322,-0.413 0.611,-0.845 0.87,-1.296 l 0.464,2.689 h 1.74 z" /></g><g
           transform="translate(608.5791,103.3015)"
           id="g84"><path
             id="path86"
             style="fill:#1d1d1b;fill-opacity:1;fill-rule:nonzero;stroke:none"
             d="M 0,0 H 1.741 L 1.143,-3.463 c 0.451,0.516 0.953,1.013 1.509,1.49 1.805,1.536 3.521,2.341 5.146,2.418 L 7.468,-1.45 C 6.359,-1.502 5.115,-2.115 3.734,-3.289 1.801,-4.927 0.595,-6.894 0.117,-9.189 l -1.723,-9.81 h -1.741 z" /></g><g
           transform="translate(637.7168,115.2595)"
           id="g88"><path
             id="path90"
             style="fill:#1d1d1b;fill-opacity:1;fill-rule:nonzero;stroke:none"
             d="M 0,0 -5.456,-30.957 H -7.197 L -1.742,0 Z" /></g><g
           transform="translate(655.8047,101.4255)"
           id="g92"><path
             id="path94"
             style="fill:#1d1d1b;fill-opacity:1;fill-rule:nonzero;stroke:none"
             d="m 0,0 c -1.303,1.161 -2.953,1.741 -4.952,1.741 -2.411,0 -4.627,-0.854 -6.647,-2.563 -2.018,-1.709 -3.24,-3.777 -3.665,-6.2 -0.349,-2 -0.077,-3.755 0.813,-5.263 z m -13.484,-13.563 c 1.367,-1.497 3.179,-2.245 5.437,-2.245 2.425,0 4.651,0.859 6.675,2.574 0.257,0.219 0.502,0.446 0.735,0.677 l 1.722,-0.657 c -0.427,-0.465 -0.884,-0.91 -1.374,-1.336 -2.451,-2.077 -5.147,-3.114 -8.088,-3.114 -2.928,0 -5.246,1.037 -6.954,3.114 -1.71,2.077 -2.307,4.585 -1.789,7.528 0.515,2.926 1.995,5.429 4.439,7.505 2.444,2.078 5.13,3.116 8.059,3.116 2.515,0 4.578,-0.754 6.189,-2.264 C 1.84,1.077 2.104,0.793 2.361,0.483 2.451,0.368 2.536,0.251 2.613,0.135 L 1.065,-1.181 Z" /></g><g
           transform="translate(680.0869,101.5603)"
           id="g96"><path
             id="path98"
             style="fill:#1d1d1b;fill-opacity:1;fill-rule:nonzero;stroke:none"
             d="M 0,0 -3.038,-17.258 H -4.779 L -1.741,0 h -1.934 l 0.309,1.741 h 1.933 l 0.91,5.148 c 0.336,1.43 1.104,2.663 2.302,3.695 1.226,0.979 2.529,1.471 3.909,1.471 0.722,0 1.458,-0.137 2.207,-0.407 L 7.082,10.101 C 6.592,10.332 6.096,10.448 5.592,10.448 4.675,10.448 3.74,10.081 2.785,9.346 1.947,8.636 1.419,7.778 1.2,6.772 L 0.309,1.741 h 3.87 L 3.87,0 Z" /></g><g
           transform="translate(688.001,103.3015)"
           id="g100"><path
             id="path102"
             style="fill:#1d1d1b;fill-opacity:1;fill-rule:nonzero;stroke:none"
             d="M 0,0 H 1.74 L 1.141,-3.463 c 0.451,0.516 0.955,1.013 1.508,1.49 1.807,1.536 3.522,2.341 5.147,2.418 L 7.468,-1.45 C 6.357,-1.502 5.112,-2.115 3.732,-3.289 1.799,-4.927 0.592,-6.894 0.115,-9.189 l -1.721,-9.81 h -1.742 z" /></g><g
           transform="translate(701.9795,100.5935)"
           id="g104"><path
             id="path106"
             style="fill:#1d1d1b;fill-opacity:1;fill-rule:nonzero;stroke:none"
             d="m 0,0 c -2.02,-1.716 -3.241,-3.786 -3.668,-6.21 -0.425,-2.426 0.067,-4.493 1.48,-6.202 1.414,-1.709 3.333,-2.564 5.756,-2.564 2.425,0 4.647,0.855 6.665,2.564 2.019,1.709 3.242,3.776 3.667,6.202 C 14.325,-3.786 13.833,-1.716 12.42,0 11.008,1.715 9.089,2.573 6.664,2.573 4.238,2.573 2.019,1.715 0,0 m 6.992,4.431 c 2.943,0 5.264,-1.038 6.967,-3.116 1.702,-2.076 2.295,-4.585 1.779,-7.525 -0.515,-2.929 -1.992,-5.431 -4.429,-7.508 -2.438,-2.077 -5.129,-3.114 -8.069,-3.114 -2.928,0 -5.246,1.037 -6.956,3.114 -1.708,2.077 -2.305,4.579 -1.789,7.508 0.515,2.94 1.995,5.449 4.44,7.525 2.445,2.078 5.129,3.116 8.057,3.116" /></g><g
           transform="translate(727.5176,109.532)"
           id="g108"><path
             id="path110"
             style="fill:#1d1d1b;fill-opacity:1;fill-rule:nonzero;stroke:none"
             d="m 0,0 c 0.275,-0.335 0.376,-0.741 0.299,-1.219 -0.091,-0.49 -0.336,-0.903 -0.736,-1.238 -0.399,-0.336 -0.837,-0.503 -1.314,-0.503 -0.478,0 -0.858,0.167 -1.143,0.503 -0.284,0.335 -0.379,0.748 -0.289,1.238 0.078,0.478 0.319,0.884 0.726,1.219 0.405,0.335 0.847,0.503 1.324,0.503 C -0.654,0.503 -0.278,0.335 0,0 m -1.461,-6.23 -3.348,-18.999 h -1.74 l 3.347,18.999 z" /></g><g
           transform="translate(749.1377,92.6609)"
           id="g112"><path
             id="path114"
             style="fill:#1d1d1b;fill-opacity:1;fill-rule:nonzero;stroke:none"
             d="m 0,0 0.619,3.444 c -0.026,1.702 -0.567,3.199 -1.625,4.489 -1.419,1.714 -3.341,2.573 -5.765,2.573 -2.426,0 -4.648,-0.859 -6.666,-2.573 -2.018,-1.716 -3.24,-3.787 -3.667,-6.21 -0.424,-2.426 0.068,-4.494 1.481,-6.202 1.413,-1.709 3.331,-2.564 5.756,-2.564 2.424,0 4.649,0.858 6.675,2.573 C -1.684,-3.18 -0.62,-1.69 0,0 m 0.271,-8.358 h -1.742 l 0.677,3.869 c -0.413,-0.451 -0.851,-0.883 -1.316,-1.296 -2.45,-2.077 -5.146,-3.114 -8.085,-3.114 -2.929,0 -5.248,1.037 -6.957,3.114 -1.708,2.077 -2.304,4.579 -1.789,7.508 0.515,2.94 1.996,5.449 4.439,7.525 2.445,2.077 5.131,3.115 8.059,3.115 2.941,0 5.269,-1.038 6.985,-3.115 C 0.864,8.835 1.154,8.403 1.413,7.952 l 2.572,14.647 h 1.742 z" /></g><g
           transform="translate(775.2656,92.7058)"
           id="g116"><path
             id="path118"
             style="fill:none;stroke:#1d1d1b;stroke-width:2.50300002;stroke-linecap:butt;stroke-linejoin:miter;stroke-miterlimit:10;stroke-dasharray:none;stroke-opacity:1"
             d="M 0,0 H 222.396" /></g><g
           transform="translate(16.5801,92.7058)"
           id="g120"><path
             id="path122"
             style="fill:none;stroke:#1d1d1b;stroke-width:2.50300002;stroke-linecap:butt;stroke-linejoin:miter;stroke-miterlimit:10;stroke-dasharray:none;stroke-opacity:1"
             d="M 0,0 H 222.395" /></g><g
           transform="translate(165.6938,186.447)"
           id="g124"><path
             id="path126"
             style="fill:#1d1d1b;fill-opacity:1;fill-rule:nonzero;stroke:none"
             d="m 0,0 7.539,-6.763 c -17.294,-15.744 -37.658,-23.614 -61.089,-23.614 -25.13,0 -46.547,8.85 -64.247,26.552 -17.703,17.701 -26.552,39.116 -26.552,64.246 0,25.058 8.849,46.453 26.552,64.193 17.7,17.74 39.117,26.608 64.247,26.608 23.431,0 43.795,-7.871 61.089,-23.615 L 0,120.734 c -15.228,13.525 -33.074,20.288 -53.55,20.288 -22.245,0 -41.24,-7.871 -56.985,-23.615 -15.742,-15.742 -23.615,-34.738 -23.615,-56.986 0,-22.32 7.873,-41.352 23.615,-57.096 15.745,-15.742 34.74,-23.615 56.985,-23.615 20.476,0 38.322,6.765 53.55,20.29" /></g><g
           transform="translate(210.9282,325.4734)"
           id="g128"><path
             id="path130"
             style="fill:#1d1d1b;fill-opacity:1;fill-rule:nonzero;stroke:none"
             d="m 0,0 v -95.679 h 30.156 c 13.155,0 24.407,4.676 33.758,14.027 9.35,9.348 14.027,20.638 14.027,33.869 0,13.229 -4.677,24.502 -14.027,33.813 C 54.563,-4.657 43.311,0 30.156,0 Z m 33.149,-105.655 c -0.96,-0.075 -1.958,-0.112 -2.993,-0.112 H 0 v -61.531 H -9.977 V 10.089 H 36.585 C 50.11,8.24 61.603,2.586 71.066,-6.874 c 11.309,-11.308 16.961,-24.944 16.961,-40.909 0,-16.04 -5.652,-29.712 -16.961,-41.021 -7.835,-7.835 -16.815,-12.971 -26.941,-15.411 l 40.909,-63.083 H 72.728 Z" /></g><g
           transform="translate(370.4639,229.907)"
           id="g132"><path
             id="path134"
             style="fill:#1d1d1b;fill-opacity:1;fill-rule:nonzero;stroke:none"
             d="m 0,0 -60.977,105.656 h 11.418 l 54.548,-94.57 54.656,94.57 H 71.066 L 9.977,0 V -71.731 H 0 Z" /></g><g
           transform="translate(507.8174,353.134)"
           id="g136"><path
             id="path138"
             style="fill:#c9e8fb;fill-opacity:1;fill-rule:nonzero;stroke:none"
             d="m 0,0 c -59.908,-77.333 77.971,-103.908 -0.691,-163.23 54.108,5.56 63.445,63.871 43.201,85.126 C 24.979,-59.695 -5.48,-43.388 0,0" /></g><g
           transform="translate(528.5137,347.6008)"
           id="g140"><path
             id="path142"
             style="fill:#b8e2fa;fill-opacity:1;fill-rule:nonzero;stroke:none"
             d="m 0,0 c -18.888,-32.109 -0.585,-51.502 13.407,-72.491 13.913,-20.883 17.531,-57.008 -22.159,-79.274 41.233,-18.143 86.377,49.692 56.449,83.531 C 26.842,-44.665 1.383,-31.976 0,0" /></g><g
           transform="translate(528.0615,296.0456)"
           id="g144"><path
             id="path146"
             style="fill:#e7f3f9;fill-opacity:1;fill-rule:nonzero;stroke:none"
             d="m 0,0 c 4.07,-7.156 9.204,-13.966 13.859,-20.936 11.227,-16.838 15.749,-43.547 -3.697,-64.935 18.063,19.766 19.313,44.053 5.799,64.537 C 11.386,-14.445 5.453,-8.486 0,0" /></g><g
           transform="translate(555.4883,336.3747)"
           id="g148"><path
             id="path150"
             style="fill:#abddf6;fill-opacity:1;fill-rule:nonzero;stroke:none"
             d="m 0,0 c -15.217,-42.457 24.846,-45.862 17.397,-88.026 -3.511,-19.925 -16.334,-37.748 -33.625,-47.937 49.959,8.433 65.282,63.126 55.332,88.717 -2.739,2.98 -5.692,5.773 -8.804,8.354 C 13.779,-25.219 5.959,-24.793 0,0" /></g><g
           transform="translate(563.043,289.4753)"
           id="g152"><path
             id="path154"
             style="fill:#e7f3f9;fill-opacity:1;fill-rule:nonzero;stroke:none"
             d="M 0,0 C 6.677,-10.561 13.274,-21.761 9.843,-41.127 8.593,-48.15 6.198,-54.907 2.873,-61.185 14.844,-43.229 17.558,-21.548 0,0" /></g><g
           transform="translate(590.1768,293.5984)"
           id="g156"><path
             id="path158"
             style="fill:#8ed3f0;fill-opacity:1;fill-rule:nonzero;stroke:none"
             d="m 0,0 c 8.114,-86.27 -82.413,-97.869 -91.032,-97.178 4.23,-7.954 89.356,-25.803 115.905,12.344 1.676,6.783 2.554,13.833 2.554,21.122 C 27.427,-38.626 16.893,-15.988 0,0" /></g><g
           transform="translate(590.6826,281.6008)"
           id="g160"><path
             id="path162"
             style="fill:#e7f3f9;fill-opacity:1;fill-rule:nonzero;stroke:none"
             d="M 0,0 C -0.506,-40.515 -24.554,-62.275 -47.964,-73.634 -17.717,-60.573 3.697,-34.05 0,0" /></g><g
           transform="translate(585.8682,162.3171)"
           id="g164"><path
             id="path166"
             style="fill:#70caf1;fill-opacity:1;fill-rule:nonzero;stroke:none"
             d="M 0,0 C -29.316,-5.479 -73.422,24.021 -95.289,37.669 -62.196,23.782 6.703,28.065 31.683,70.283 31.709,69.378 31.735,68.474 31.735,67.569 31.735,40.382 19.393,16.095 0,0" /></g><g
           transform="translate(537.9844,193.0427)"
           id="g168"><path
             id="path170"
             style="fill:#e7f3f9;fill-opacity:1;fill-rule:nonzero;stroke:none"
             d="M 0,0 C 25.697,1.197 53.15,9.497 70.628,27.799 56.236,8.885 31.842,0.771 0,0" /></g><g
           transform="translate(479.3799,214.5368)"
           id="g172"><path
             id="path174"
             style="fill:#50baea;fill-opacity:1;fill-rule:nonzero;stroke:none"
             d="m 0,0 c 7.183,-25.697 45.835,-63.712 77.013,-68.341 18.86,5.986 34.955,18.17 45.915,34.157 C 83.823,-41.393 19.021,-29.741 0,0" /></g><g
           transform="translate(594.1143,179.156)"
           id="g176"><path
             id="path178"
             style="fill:#e7f3f9;fill-opacity:1;fill-rule:nonzero;stroke:none"
             d="M 0,0 C -26.017,-2.873 -59.961,1.384 -85.153,12.583 -60.626,-2.048 -20.723,-4.176 0,0" /></g><g
           transform="translate(479.459,232.3337)"
           id="g180"><path
             id="path182"
             style="fill:#70caf1;fill-opacity:1;fill-rule:nonzero;stroke:none"
             d="m 0,0 c -16.892,-30.406 -5.799,-64.457 13.567,-82.12 11.2,-5.188 23.676,-8.087 36.844,-8.087 14.472,0 28.146,3.511 40.196,9.736 C 54.109,-76.826 -3.325,-42.696 0,0" /></g><g
           transform="translate(556.0205,154.4958)"
           id="g184"><path
             id="path186"
             style="fill:#c9e8fb;fill-opacity:1;fill-rule:nonzero;stroke:none"
             d="M 0,0 C -19.34,5.108 -41.207,16.653 -56.636,32.136 -43.548,16.121 -20.298,3.512 0,0" /></g><g
           transform="translate(492.7871,242.6824)"
           id="g188"><path
             id="path190"
             style="fill:#8ed3f0;fill-opacity:1;fill-rule:nonzero;stroke:none"
             d="m 0,0 c -34.37,-7.156 -46.926,-28.943 -42.563,-48.948 0.106,-0.532 0.239,-1.037 0.372,-1.57 10.561,-22.159 30.14,-39.184 54.003,-46.34 C -13.62,-74.539 -31.923,-20.59 0,0" /></g><g
           transform="translate(504.5986,145.824)"
           id="g192"><path
             id="path194"
             style="fill:#c9e8fb;fill-opacity:1;fill-rule:nonzero;stroke:none"
             d="M 0,0 C -18.303,16.067 -32.907,48.549 -27.746,73.129 -33.333,51.022 -21.867,16.52 0,0" /></g><g
           transform="translate(450.0908,193.2556)"
           id="g196"><path
             id="path198"
             style="fill:#abddf6;fill-opacity:1;fill-rule:nonzero;stroke:none"
             d="m 0,0 c 0.106,-0.106 0.213,-0.213 0.319,-0.293 -2.581,14.737 11.493,42.909 36.87,47.405 -0.877,-5.959 2.528,-11.253 7.077,-14.551 4.709,-3.458 11.855,-13.38 7.688,-20.51 6.523,0.887 14.338,3.884 9.311,19.845 1.622,1.649 3.378,3.538 3.564,4.309 1.011,4.576 0.239,9.949 -1.676,14.95 C 53.683,75.736 21.627,73.501 20.776,107.659 15.456,95.714 19.101,82.174 24.341,72.916 14.604,77.465 3.484,79.593 -5.64,77.571 1.756,75.337 11.812,68.42 17.61,62.435 9.258,63.26 2.847,63.605 -3.618,62.302 -10.136,41.898 -8.832,19.473 0,0" /></g><g
           transform="translate(450.25,199.4802)"
           id="g200"><path
             id="path202"
             style="fill:#c9e8fb;fill-opacity:1;fill-rule:nonzero;stroke:none"
             d="M 0,0 C 1.49,14.765 14.1,35.461 34.742,40.408 22.958,38.626 2.262,26.575 0,0" /></g><g
           transform="translate(470.8672,300.9143)"
           id="g204"><path
             id="path206"
             style="fill:#c9e8fb;fill-opacity:1;fill-rule:nonzero;stroke:none"
             d="M 0,0 C -2.581,-7.555 0.957,-25.086 11.519,-29.821 17.85,-36.073 39.823,-62.063 44.212,-63.473 41.339,-32.907 7.714,-27.347 0,0" /></g><g
           transform="translate(504.0127,205.572)"
           id="g208"><path
             id="path210"
             style="fill:#e7f3f9;fill-opacity:1;fill-rule:nonzero;stroke:none"
             d="m 0,0 c 9.582,1.506 8.646,11.12 6.332,18.462 0.346,0.346 0.691,0.719 1.037,1.064 l -0.026,0.053 c 0.398,0.4 0.824,0.825 1.197,1.251 0.718,0.824 1.25,1.543 1.33,1.941 1.037,4.576 0.266,9.95 -1.649,14.951 L -29.581,60.6 c 6.544,-8.459 14.977,-13.701 20.616,-21.974 1.995,-2.899 2.747,-3.883 4.463,-9.293 1.649,-2.74 4.511,-5.247 5.681,-7.827 C 6.792,10.971 5.64,2.927 0,0" /></g><g
           transform="translate(502.0449,205.3064)"
           id="g212"><path
             id="path214"
             style="fill:#b8e2fa;fill-opacity:1;fill-rule:nonzero;stroke:none"
             d="m 0,0 c 5.286,0.518 12.606,2.712 10.659,14.36 -0.539,3.226 0.314,6.513 1.997,9.318 0.113,0.185 0.188,0.346 0.219,0.476 1.011,4.576 0.239,9.95 -1.676,14.95 -9.47,24.582 -41.526,22.346 -42.377,56.504 -14.099,-31.71 9.444,-35.993 24.42,-54.587 3.353,-4.177 3.38,-9.157 5.269,-12.243 C 0.134,26.064 1.383,24.703 2.554,22.149 7.82,10.79 6.238,1.57 0,0" /></g><g
           transform="translate(513.2441,244.4109)"
           id="g216"><path
             id="path218"
             style="fill:#e7f3f9;fill-opacity:1;fill-rule:nonzero;stroke:none"
             d="M 0,0 C -9.471,24.581 -41.526,22.346 -42.377,56.503 -41.979,20.83 -12.317,25.804 0,0" /></g><g
           transform="translate(434.3662,252.0388)"
           id="g220"><path
             id="path222"
             style="fill:#abddf6;fill-opacity:1;fill-rule:nonzero;stroke:none"
             d="m 0,0 c 5.692,-0.004 13.724,-2.274 20.025,-5.101 l 3.35,9.243 C 14.947,4.828 6.402,3.588 0,0" /></g><g
           transform="translate(807.1797,182.3865)"
           id="g224"><path
             id="path226"
             style="fill:#70caf1;fill-opacity:1;fill-rule:nonzero;stroke:none"
             d="m 0,0 c -16.723,-15.99 -36.71,-23.984 -59.961,-23.984 -24.938,0 -46.191,8.782 -63.756,26.349 -17.569,17.567 -26.351,38.819 -26.351,63.758 0,24.864 8.782,46.099 26.351,63.702 17.565,17.603 38.818,26.405 63.756,26.405 23.251,0 43.458,-7.812 60.621,-23.435 l -7.481,-6.821 c -15.11,13.423 -32.823,20.134 -53.14,20.134 -22.077,0 -40.928,-7.812 -56.551,-23.435 -15.623,-15.622 -23.434,-34.474 -23.434,-56.55 0,-22.152 7.811,-41.038 23.434,-56.661 15.623,-15.623 34.474,-23.435 56.551,-23.435 18.924,0 35.61,5.831 50.06,17.494 v 53.69 H 0 Z" /></g><g
           transform="translate(849.4277,336.5261)"
           id="g228"><path
             id="path230"
             style="fill:#70caf1;fill-opacity:1;fill-rule:nonzero;stroke:none"
             d="M 0,0 66.123,-114.422 132.136,0 h 11.332 l -0.441,-0.77 v -175.263 h -9.901 V -17.934 L 66.123,-133.895 -0.989,-17.934 v -158.099 h -9.903 V -0.77 L -11.332,0 Z" /></g><path
           id="path232"
           style="fill:#70caf1;fill-opacity:1;fill-rule:nonzero;stroke:none"
           d="m 807.18,229.586 h -61.701 v 10.303 h 61.701 z" /></g></g></g></svg>